<svg width="247" height="123" viewBox="0 0 247 123" fill="none" xmlns="http://www.w3.org/2000/svg">
<path fill-rule="evenodd" clip-rule="evenodd" d="M42.6527 1.83922C45.6131 -0.613074 49.8992 -0.613075 52.8596 1.83922L92.0711 34.3209C96.3618 37.8752 95.5939 43.9719 91.8378 46.8659C92.9848 48.3765 93.6655 50.2605 93.6655 52.3035V90.6789C93.6655 95.6495 89.636 99.6789 84.6655 99.6789H8.99999C4.02943 99.6789 0 95.6495 0 90.6789V52.3034C0 49.8095 1.01438 47.5525 2.65307 45.9225C-0.1838 42.795 -0.426637 37.525 3.44122 34.321L17.2881 22.8506C16.7516 21.9645 16.4428 20.9251 16.4428 19.8137V11.2986C16.4428 8.05537 19.072 5.4262 22.3153 5.4262C25.5585 5.4262 28.1877 8.05538 28.1877 11.2986V13.8216L42.6527 1.83922ZM59.3592 93.7971C55.4854 95.2779 51.2805 96.0891 46.8862 96.0891C41.8765 96.0891 37.113 95.0348 32.8056 93.136L21.6662 99.6814H12.092V64.373C11.9948 63.3111 11.9451 62.2354 11.9451 61.1481C11.9451 41.8507 27.5888 26.2071 46.8862 26.2071C66.1836 26.2071 81.8272 41.8507 81.8272 61.1481C81.8272 71.8337 77.0306 81.3989 69.473 87.8082L73.1654 99.6814H65.8248L59.3592 93.7971Z" fill="#004157"/>
<path d="M28.3922 50.7722C29.8603 52.6808 34.2646 54.0021 34.5582 54.0021C38.8158 51.7999 52.3224 52.0936 60.397 52.0936C60.2502 53.9042 59.9566 57.5843 59.9566 59.5809C59.9566 61.5775 58.4884 62.0767 57.7544 62.0767H33.5306C28.2454 60.7554 26.3368 62.3703 27.0709 62.3703C30.242 62.6052 31.1326 64.4257 31.1816 65.3065V74.8493C31.1816 76.2587 33.4327 76.7089 34.5582 76.7578H60.6906C67.8844 76.611 69.3525 76.3174 68.3248 75.1429C66.6615 73.242 61.131 73.9684 59.9566 74.7025C58.7821 75.4365 38.0817 75.4365 36.32 75.4365C34.9106 75.4365 34.5582 74.4578 34.5582 73.9684V63.8384C36.32 63.398 58.6353 63.398 61.5715 63.398C64.5077 63.398 63.3332 61.6363 61.5715 61.049C61.5715 58.1128 64.0183 51.8978 65.2418 49.3041C63.8226 49.1573 60.7787 48.9518 59.9566 49.3041C56.2863 51.2127 35.2923 50.7722 32.3561 50.7722C29.4199 50.7722 26.9241 48.8637 28.3922 50.7722Z" fill="#004157"/>
<path d="M113.872 55.88V82.056C113.872 84.488 114.427 86.3653 115.536 87.688C116.688 89.0107 118.416 89.672 120.72 89.672C123.024 89.672 124.752 89.0107 125.904 87.688C127.099 86.3227 127.696 84.4453 127.696 82.056V55.88H140.24V82.056C140.24 86.1947 139.365 89.736 137.616 92.68C135.867 95.5813 133.477 97.7787 130.448 99.272C127.461 100.723 124.133 101.448 120.464 101.448C116.795 101.448 113.509 100.723 110.608 99.272C107.749 97.7787 105.488 95.5813 103.824 92.68C102.203 89.7787 101.392 86.2373 101.392 82.056V55.88H113.872ZM173.835 101L159.691 81.224V101H147.147V55.88H159.691V75.336L173.707 55.88H188.171L171.595 77.768L189.003 101H173.835ZM215.216 101.448C210.992 101.448 207.109 100.467 203.568 98.504C200.027 96.4987 197.211 93.7467 195.12 90.248C193.072 86.7067 192.048 82.7173 192.048 78.28C192.048 73.8427 193.072 69.8747 195.12 66.376C197.211 62.8347 200.027 60.0827 203.568 58.12C207.109 56.1573 210.992 55.176 215.216 55.176C219.483 55.176 223.365 56.1573 226.864 58.12C230.405 60.0827 233.2 62.8347 235.248 66.376C237.296 69.8747 238.32 73.8427 238.32 78.28C238.32 82.7173 237.296 86.7067 235.248 90.248C233.2 93.7467 230.405 96.4987 226.864 98.504C223.323 100.467 219.44 101.448 215.216 101.448ZM215.216 89.8C218.416 89.8 220.933 88.7547 222.768 86.664C224.645 84.5733 225.584 81.7787 225.584 78.28C225.584 74.696 224.645 71.88 222.768 69.832C220.933 67.7413 218.416 66.696 215.216 66.696C211.973 66.696 209.435 67.7413 207.6 69.832C205.765 71.88 204.848 74.696 204.848 78.28C204.848 81.8213 205.765 84.6373 207.6 86.728C209.435 88.776 211.973 89.8 215.216 89.8Z" fill="#004157"/>
</svg>
